<?xml version="1.0" encoding="UTF-8"?>
<svg id="Calque_1" data-name="Calque 1" xmlns="http://www.w3.org/2000/svg" viewBox="0 0 703.2081 167.489">
  <g>
    <polygon points="0 .1905 0 113.2353 54.1114 167.3781 137.5425 83.9784 54.1114 .1905 0 .1905"/>
    <polygon points="184.7114 0 203.1048 18.3936 147.161 74.3373 91.2172 18.3936 109.6108 0 184.7114 0"/>
  </g>
  <polygon points="429.9154 13.6552 429.9154 33.2207 295.6471 167.489 243.1817 167.489 216.1504 140.3525 189.1154 167.3875 119.2025 167.3875 109.4325 157.5922 109.4325 130.8958 240.1228 .1801 292.588 .1801 319.6227 27.3386 346.6543 .307 416.5672 .307 429.9154 13.6552"/>
  <polygon points="667.1477 85.2176 703.2081 85.2176 703.2081 149.0402 680.0645 167.3875 584.9778 167.3875 551.2522 133.6619 551.0999 85.0654 635.985 .1801 654.2309 .1801 703.2081 49.1572 667.1477 85.2176"/>
  <polygon points="542.6807 18.6799 542.6807 149.0148 519.5626 167.3875 460.5362 167.3875 460.5362 137.6713 430.82 167.3875 365.8556 167.3875 340.2504 141.7571 426.1508 55.8567 445.5386 55.8567 460.5362 70.8545 460.5362 .2055 519.5626 .2055 542.6807 18.6799"/>
  <g>
    <rect x="551.2608" y=".3823" width="18.9451" height="18.9451"/>
    <polygon points="585.1502 .3614 585.1502 4.383 554.8061 34.727 551.1059 34.727 551.2608 52.5725 568.4202 52.5725 603.4511 17.5417 603.4511 .3822 585.1502 .3614"/>
  </g>
</svg>